Coordinates
version=1
nRows=11
nColumns=40
inDegrees=yes

Units are S.I. units (second, meters, Newtons, ...)
Angles are in degrees.

endheader
time	pelvis_tilt	pelvis_list	pelvis_rotation	pelvis_tx	pelvis_ty	pelvis_tz	hip_flexion_r	hip_adduction_r	hip_rotation_r	knee_angle_r	knee_angle_r_beta	ankle_angle_r	subtalar_angle_r	mtp_angle_r	hip_flexion_l	hip_adduction_l	hip_rotation_l	knee_angle_l	knee_angle_l_beta	ankle_angle_l	subtalar_angle_l	mtp_angle_l	lumbar_extension	lumbar_bending	lumbar_rotation	arm_flex_r	arm_add_r	arm_rot_r	elbow_flex_r	pro_sup_r	wrist_flex_r	wrist_dev_r	arm_flex_l	arm_add_l	arm_rot_l	elbow_flex_l	pro_sup_l	wrist_flex_l	wrist_dev_l
     27.39750000	     -6.59225165	     -5.22267625	    -11.29321074	      0.76217049	      0.92368583	      0.42386983	     19.77378233	      3.68088795	     -2.32648184	     19.44728336	     19.44728336	      9.28151092	      4.18064956	     -1.77268368	      5.60908591	    -12.08928615	    -18.66104462	     20.62445619	     20.62445619	     18.33491620	    -16.21222920	      7.90189807	    -10.25949337	      7.54049482	      1.29834735	    -23.13228865	    -13.97875714	     -4.08710747	     38.25757293	     45.04479394	      0.00000000	      0.00000000	     46.03536784	    -25.82033370	    -12.85848400	     75.61941676	     48.54454544	      0.00000000	      0.00000000
     27.41771429	     -6.65627085	     -5.35068905	    -10.74399840	      0.76299272	      0.92366542	      0.42860273	     19.49697965	      3.97984418	     -2.78075377	     19.58473740	     19.58473740	      9.63488795	      3.94854276	     -1.87696122	      5.31073439	    -12.50674415	    -18.33306918	     20.40053172	     20.40053172	     18.14180000	    -15.91399014	      7.98089656	    -10.19858382	      7.53971313	      1.24186636	    -22.78869057	    -14.14705015	     -4.08954028	     38.36862965	     45.04525077	      0.00000000	      0.00000000	     45.40071678	    -25.28741093	    -12.65822481	     75.43514617	     48.52246519	      0.00000000	      0.00000000
     27.43792857	     -6.70211774	     -5.47883320	    -10.20091572	      0.76369709	      0.92368468	      0.43334911	     19.18420331	      4.29412233	     -3.21419034	     19.66958735	     19.66958735	      9.95938694	      3.71055245	     -1.95113982	      5.04700974	    -12.95615797	    -18.02459032	     20.25333681	     20.25333681	     17.93211328	    -15.58091135	      8.04205544	    -10.19892265	      7.51062181	      1.22012568	    -22.41009484	    -14.32639994	     -4.08804741	     38.48268315	     45.04552708	      0.00000000	      0.00000000	     44.59238570	    -24.73001257	    -12.43491477	     75.17042522	     48.49619343	      0.00000000	      0.00000000
     27.45814286	     -6.71747686	     -5.57795768	     -9.65301039	      0.76429867	      0.92373829	      0.43801913	     18.83554908	      4.57773339	     -3.63231410	     19.71898832	     19.71898832	     10.28103232	      3.44946569	     -2.00978807	      4.87008720	    -13.40743184	    -17.69963930	     20.28244910	     20.28244910	     17.67851416	    -15.26488332	      8.08162792	    -10.24996750	      7.43468268	      1.22965219	    -21.95892762	    -14.50631210	     -4.08620300	     38.61592838	     45.04527776	      0.00000000	      0.00000000	     43.66044650	    -24.13634124	    -12.19420988	     74.84969287	     48.46690888	      0.00000000	      0.00000000
     27.47835714	     -6.75916310	     -5.88229876	     -9.07128107	      0.76485043	      0.92373502	      0.44278276	     18.37631606	      5.12044621	     -4.01983278	     19.54367041	     19.54367041	     10.48719203	      3.08173738	     -1.84377925	      4.95105905	    -14.22272171	    -17.36766038	     20.79486259	     20.79486259	     17.52107464	    -14.84495287	      7.87791251	    -10.24050075	      7.60707003	      1.07775018	    -21.35752209	    -14.83427304	     -3.97594317	     38.71983472	     45.04731556	      0.00000000	      0.00000000	     42.33068771	    -23.68195096	    -11.96127437	     74.21177400	     48.42812312	      0.00000000	      0.00000000
     27.49857143	     -6.62825591	     -5.87689143	     -8.48917783	      0.76537419	      0.92393215	      0.44730808	     17.94420076	      5.28230343	     -4.36231919	     19.66389785	     19.66389785	     10.78489934	      2.74596745	     -1.88183129	      4.93029891	    -14.63005926	    -16.89970888	     21.31492448	     21.31492448	     17.20083984	    -14.65078752	      7.82947575	    -10.40874588	      7.30949650	      1.09016834	    -20.64480206	    -14.98327926	     -3.95945269	     38.92979031	     45.04520257	      0.00000000	      0.00000000	     41.09331560	    -22.85370214	    -11.64202386	     73.77335781	     48.38893744	      0.00000000	      0.00000000
     27.51878571	     -6.72443350	     -6.16264210	     -7.82106564	      0.76556472	      0.92357609	      0.45183614	     17.71214211	      5.82460213	     -4.66325800	     19.70244957	     19.70244957	     11.03063467	      2.01802012	     -1.68443331	      5.75821069	    -15.60048324	    -16.16723027	     22.93119236	     22.93119236	     16.91428591	    -14.70325901	      7.36182815	    -10.34025099	      7.43054984	      0.77643963	    -19.65857042	    -15.32973911	     -3.81916797	     39.06541484	     45.04831708	      0.00000000	      0.00000000	     39.45638807	    -22.34060658	    -11.40806082	     72.84308024	     48.34228355	      0.00000000	      0.00000000
     27.53900000	     -6.61660073	     -6.28993252	     -7.17083089	      0.76581996	      0.92344838	      0.45625023	     17.36307739	      6.16963678	     -4.90226453	     19.88828760	     19.88828760	     11.33225277	      1.33251351	     -1.56198390	      6.48006101	    -16.35207098	    -15.33451692	     24.67998952	     24.67998952	     16.46080706	    -14.96169502	      6.92319448	    -10.45928408	      7.30503960	      0.59201520	    -18.53636408	    -15.61461922	     -3.71593059	     39.24876522	     45.05068388	      0.00000000	      0.00000000	     37.73031053	    -21.60056766	    -11.10832420	     71.90577917	     48.29074439	      0.00000000	      0.00000000
     27.55921429	     -6.53324265	     -6.37332454	     -6.49194052	      0.76593132	      0.92314854	      0.46052688	     17.16521459	      6.50850959	     -4.93929938	     20.27113303	     20.27113303	     11.90525593	      0.29208643	     -0.56300633	      7.52061878	    -17.08909981	    -14.31501293	     26.81785080	     26.81785080	     15.36951674	    -15.64375056	      5.31233871	    -10.47668975	      7.09414936	     -0.01585288	    -16.59647859	    -16.07864895	     -2.31185518	     38.51432036	     45.08598997	      0.00000000	      0.00000000	     35.65622331	    -21.05939986	    -11.06449238	     70.56864773	     48.23226461	      0.00000000	      0.00000000
     27.57942857	     -6.35574667	     -6.48346002	     -5.77242717	      0.76599803	      0.92272781	      0.46460962	     16.86915890	      6.81385447	     -5.19448504	     20.61922139	     20.61922139	     12.22318860	     -0.49336648	     -0.57677706	      8.88630604	    -17.88513376	    -13.05703766	     29.67243080	     29.67243080	     14.61741370	    -16.36130981	      4.81408949	    -10.65547999	      6.93217030	     -0.22399348	    -15.17610456	    -16.33378950	     -2.39811096	     38.99612700	     45.08923587	      0.00000000	      0.00000000	     33.60976150	    -20.16953625	    -10.63300048	     69.27233178	     48.16324689	      0.00000000	      0.00000000
     27.59964286	     -6.11247632	     -6.58120324	     -5.05683955	      0.76595016	      0.92209827	      0.46853341	     16.62352822	      7.11921194	     -5.33015554	     21.15775012	     21.15775012	     12.62429249	     -1.50104800	     -0.59130175	     10.50444732	    -18.65683650	    -11.64395856	     33.00220797	     33.00220797	     13.67326929	    -17.24182547	      4.30696070	    -10.91553522	      6.75075200	     -0.47601708	    -13.45752211	    -16.58088153	     -2.51192600	     39.50525459	     45.09407492	      0.00000000	      0.00000000	     31.46267909	    -19.30216020	    -10.15242730	     67.62240029	     48.08446745	      0.00000000	      0.00000000
